<svg xmlns="http://www.w3.org/2000/svg" viewBox="0 0 200 180">
  <path d="M 100 110 m -70 0 a 70 70 0 0 1 140 0 Z" fill="#F7941D"/>
  <g transform="translate(100, 110)" fill="#F7941D">
    <path d="M 0 0 L -85 -30 L -75 -55 Z"/>
    <path d="M 0 0 L -68 -58 L -52 -76 Z"/>
    <path d="M 0 0 L -38 -78 L -20 -90 Z"/>
    <path d="M 0 0 L -10 -88 L 10 -88 Z"/>
    <path d="M 0 0 L 38 -78 L 20 -90 Z"/>
    <path d="M 0 0 L 68 -58 L 52 -76 Z"/>
    <path d="M 0 0 L 85 -30 L 75 -55 Z"/>
    <path d="M 0 0 L -95 -5 L -90 -25 Z"/>
    <path d="M 0 0 L 95 -5 L 90 -25 Z"/>
  </g>
  <text x="100" y="165" font-family="'Nunito Sans', 'Arial Black', sans-serif" font-weight="900" font-size="52" fill="#0069AA" text-anchor="middle" letter-spacing="3">RISE</text>
</svg>
